<?xml version="1.0" encoding="utf-8"?>
<!-- Generator: Adobe Illustrator 25.0.1, SVG Export Plug-In . SVG Version: 6.00 Build 0)  -->
<svg version="1.1" id="Layer_1" xmlns="http://www.w3.org/2000/svg" xmlns:xlink="http://www.w3.org/1999/xlink" x="0px" y="0px"
	 viewBox="0 0 512 512" style="enable-background:new 0 0 512 512;" xml:space="preserve">
<style type="text/css">
	.st0{fill:#FFFFFF;}
</style>
<g id="XMLID_144_">
	<path id="XMLID_1608_" class="st0" d="M400.6,308.4H363V297c0-2.9-2.4-5.2-5.2-5.2h-23.9v-35.4h3.6c2.9,0,5.2-2.4,5.2-5.2
		s-2.4-5.2-5.2-5.2h-14.6v-27c2.6-0.3,4.7-2.4,4.7-5.1c0-2.9-2.4-5.2-5.2-5.2h-4.7h-8.2v-4.5c0-27.9-21.3-50.9-48.5-53.5v-21.9
		c0-2.9-2.4-5.2-5.2-5.2s-5.2,2.4-5.2,5.2v21.9c-27.2,2.6-48.5,25.6-48.5,53.5v4.5h-8.2h-4.5c-2.9,0-5.2,2.4-5.2,5.2
		c0,2.7,2,4.9,4.7,5.1v27h-14.6c-2.9,0-5.2,2.4-5.2,5.2s2.4,5.2,5.2,5.2h3.6v35.4h-23.9c-2.9,0-5.2,2.4-5.2,5.2v11.4h-37.5
		c-2.9,0-5.2,2.4-5.2,5.2v70.6c0,2.9,2.4,5.2,5.2,5.2h289.4c2.9,0,5.2-2.4,5.2-5.2v-70.6C405.8,310.8,403.5,308.4,400.6,308.4z
		 M212.7,204.2c0-23.9,19.4-43.3,43.3-43.3s43.3,19.4,43.3,43.3v4.5h-86.5V204.2z M199.3,219.1h8.2h97h8.2v27H199.3V219.1z
		 M188.4,256.5h135.1v35.4H188.4V256.5z M116.5,318.9h32.4v60.3h-32.4V318.9z M159.3,313.6v-11.4h193.3v11.4v65.5H159.3V313.6z
		 M395.5,379.1H363v-60.3h32.4V379.1z"/>
</g>
<g>
	<path class="st0" d="M255.5,15.5c32.4,0,63.8,6.3,93.4,18.9c28.6,12.1,54.2,29.4,76.3,51.4s39.4,47.7,51.4,76.3
		c12.5,29.6,18.9,61,18.9,93.4s-6.3,63.8-18.9,93.4c-12.1,28.6-29.4,54.2-51.4,76.3s-47.7,39.4-76.3,51.4
		c-29.6,12.5-61,18.9-93.4,18.9s-63.8-6.3-93.4-18.9c-28.6-12.1-54.2-29.4-76.3-51.4s-39.4-47.7-51.4-76.3
		c-12.5-29.6-18.9-61-18.9-93.4s6.3-63.8,18.9-93.4c12.1-28.6,29.4-54.2,51.4-76.3s47.7-39.4,76.3-51.4
		C191.7,21.8,223.1,15.5,255.5,15.5 M255.5,0.5c-140.8,0-255,114.2-255,255s114.2,255,255,255s255-114.2,255-255
		S396.3,0.5,255.5,0.5L255.5,0.5z"/>
</g>
</svg>
