<?xml version="1.0" encoding="utf-8"?>
<!-- Generator: Adobe Illustrator 25.0.1, SVG Export Plug-In . SVG Version: 6.00 Build 0)  -->
<svg version="1.1" id="Capa_1" xmlns="http://www.w3.org/2000/svg" xmlns:xlink="http://www.w3.org/1999/xlink" x="0px" y="0px"
	 viewBox="0 0 512 512" style="enable-background:new 0 0 512 512;" xml:space="preserve">
<style type="text/css">
	.st0{fill:#FFFFFF;}
</style>
<path class="st0" d="M342.4,146.1V134c0-6.8-5.5-12.2-12.2-12.2H195.7c-6.8,0-12.2,5.5-12.2,12.2v12l-55.4-16.3
	c-7.8-2.3-15.7,3.6-15.7,11.7l0,254.1h301.3V158.3c0-6.8-5.5-12.2-12.2-12.2H342.4z M183.5,377.8H130V148.7l53.5,15.7L183.5,377.8
	L183.5,377.8z M289.4,377.8h-17.7v-35.5c0-2.3,1.9-4.2,4.2-4.2h9.2c2.3,0,4.2,1.9,4.2,4.2V377.8z M254.1,377.8h-17.7v-35.5
	c0-2.3,1.9-4.2,4.2-4.2h9.2c2.3,0,4.2,1.9,4.2,4.2V377.8z M324.7,377.8h-17.7v-48.6c0-4.9-4-8.8-8.8-8.8h-70.6c-4.9,0-8.8,4-8.8,8.8
	v48.6h-17.7V139.5h123.6V377.8z M396.2,377.8h-53.9V203.5h53.9V377.8z M342.4,185.8v-22.1h53.9v22.1H342.4z"/>
<g>
	<path class="st0" d="M256,15.9c32.4,0,63.8,6.3,93.4,18.9c28.6,12.1,54.2,29.4,76.3,51.4s39.4,47.7,51.4,76.3
		c12.5,29.6,18.9,61,18.9,93.4s-6.3,63.8-18.9,93.4c-12.1,28.6-29.4,54.2-51.4,76.3S378,464.9,349.4,477
		c-29.6,12.5-61,18.9-93.4,18.9s-63.8-6.3-93.4-18.9c-28.6-12.1-54.2-29.4-76.3-51.4s-39.4-47.7-51.4-76.3
		c-12.5-29.6-18.9-61-18.9-93.4s6.3-63.8,18.9-93.4c12.1-28.6,29.4-54.2,51.4-76.3s47.7-39.4,76.3-51.4
		C192.2,22.2,223.6,15.9,256,15.9 M256,0.9C115.2,0.9,1,115,1,255.9s114.2,255,255,255s255-114.2,255-255S396.8,0.9,256,0.9L256,0.9
		z"/>
</g>
</svg>
