<?xml version="1.0" encoding="utf-8"?>
<!-- Generator: Adobe Illustrator 25.0.1, SVG Export Plug-In . SVG Version: 6.00 Build 0)  -->
<svg version="1.1" id="Capa_1" xmlns="http://www.w3.org/2000/svg" xmlns:xlink="http://www.w3.org/1999/xlink" x="0px" y="0px"
	 viewBox="0 0 510 510" style="enable-background:new 0 0 510 510;" xml:space="preserve">
<style type="text/css">
	.st0{fill:#FFFFFF;}
</style>
<g>
	<g>
		<g>
			<path class="st0" d="M255,133.8c-31.1,0-56.3,25.3-56.3,56.3s25.3,56.3,56.3,56.3s56.3-25.3,56.3-56.3S286.1,133.8,255,133.8z
				 M255,230.3c-22.2,0-40.2-18.1-40.2-40.2s18.1-40.2,40.2-40.2s40.2,18.1,40.2,40.2S277.2,230.3,255,230.3z"/>
		</g>
	</g>
	<g>
		<g>
			<path class="st0" d="M367.6,198.2c-22.2,0-40.2,18.1-40.2,40.2s18.1,40.2,40.2,40.2s40.2-18.1,40.2-40.2S389.8,198.2,367.6,198.2
				z M367.6,262.5c-13.3,0-24.1-10.8-24.1-24.1c0-13.3,10.8-24.1,24.1-24.1s24.1,10.8,24.1,24.1
				C391.8,251.7,380.9,262.5,367.6,262.5z"/>
		</g>
	</g>
	<g>
		<g>
			<path class="st0" d="M143.5,198.2c-22.2,0-40.2,18.1-40.2,40.2s18.1,40.2,40.2,40.2s40.2-18.1,40.2-40.2S165.7,198.2,143.5,198.2
				z M143.5,262.5c-13.3,0-24.1-10.8-24.1-24.1c0-13.3,10.8-24.1,24.1-24.1s24.1,10.8,24.1,24.1
				C167.7,251.7,156.8,262.5,143.5,262.5z"/>
		</g>
	</g>
	<g>
		<g>
			<path class="st0" d="M255,262.5c-57.7,0-104.6,46.9-104.6,104.6c0,4.4,3.6,8,8,8c4.4,0,8-3.6,8-8c0-48.8,39.7-88.5,88.5-88.5
				s88.5,39.7,88.5,88.5c0,4.4,3.6,8,8,8c4.4,0,8-3.6,8-8C359.6,309.4,312.7,262.5,255,262.5z"/>
		</g>
	</g>
	<g>
		<g>
			<path class="st0" d="M367.6,294.7c-13.2,0-26.2,3.6-37.5,10.5c-3.8,2.3-5,7.3-2.7,11.1c2.3,3.8,7.3,5,11.1,2.7
				c8.8-5.3,18.8-8.1,29.2-8.1c31.1,0,56.3,25.3,56.3,56.3c0,4.4,3.6,8,8,8c4.4,0,8-3.6,8-8C440,327.2,407.5,294.7,367.6,294.7z"/>
		</g>
	</g>
	<g>
		<g>
			<path class="st0" d="M179.9,305.1c-11.3-6.8-24.2-10.4-37.5-10.4c-39.9,0-72.4,32.5-72.4,72.4c0,4.4,3.6,8,8,8s8-3.6,8-8
				c0-31.1,25.3-56.3,56.3-56.3c10.3,0,20.4,2.8,29.1,8.1c3.8,2.3,8.7,1.1,11.1-2.7S183.7,307.5,179.9,305.1z"/>
		</g>
	</g>
</g>
<g>
	<path class="st0" d="M255,14.5c32.4,0,63.8,6.3,93.4,18.9c28.6,12.1,54.2,29.4,76.3,51.4s39.4,47.7,51.4,76.3
		c12.5,29.6,18.9,61,18.9,93.4s-6.3,63.8-18.9,93.4c-12.1,28.6-29.4,54.2-51.4,76.3s-47.7,39.4-76.3,51.4
		c-29.6,12.5-61,18.9-93.4,18.9s-63.8-6.3-93.4-18.9c-28.6-12.1-54.2-29.4-76.3-51.4s-39.4-47.7-51.4-76.3
		c-12.5-29.6-18.9-61-18.9-93.4s6.3-63.8,18.9-93.4c12.1-28.6,29.4-54.2,51.4-76.3s47.7-39.4,76.3-51.4
		C191.2,20.8,222.6,14.5,255,14.5 M255-0.5C114.2-0.5,0,113.6,0,254.5s114.2,255,255,255s255-114.2,255-255S395.8-0.5,255-0.5
		L255-0.5z"/>
</g>
</svg>
